<svg width="841" height="489" viewBox="0 0 841 489" fill="none" xmlns="http://www.w3.org/2000/svg">
<path d="M335.382 119.265L334.728 120.836L335.672 122.252C335.837 122.499 336.006 122.697 336.152 122.85L336.198 122.987L336.751 123.527C340.483 127.165 342.423 131.888 342.423 136.906V144.735C342.423 150.447 339.755 155.581 335.588 159.18L334.408 160.199L334.49 161.756L342.423 311.613C342.402 322.383 338.382 331.959 330.991 339.151L330.967 339.174L330.944 339.197C323.717 346.524 314.096 350.536 303.743 350.536H301.568C291.219 350.536 281.588 346.527 274.243 339.182L274.235 339.174L274.228 339.166C266.919 331.958 262.909 322.369 262.889 312.046L270.713 161.753L270.794 160.198L269.615 159.18C265.469 155.599 262.888 150.582 262.888 144.735V136.906C262.888 131.489 265.126 126.572 268.826 123.149L270.52 121.582L269.557 119.485C265.93 111.592 257.877 89.7766 266.968 69.1437L266.971 69.137C274.452 52.0505 291.809 39.8568 319.568 33.2322C321.309 32.8535 323.008 33.5082 323.965 34.8835L324.004 34.94L324.046 34.9948C325.009 36.2586 325.12 38.1001 324.294 39.458L324.275 39.4879L324.258 39.5182C322.352 42.8107 320.151 47.5832 318.726 52.4344C317.364 57.0723 316.486 62.5089 318.005 66.7824C318.336 67.8912 318.931 69.1778 320.083 70.3911C321.236 71.6063 322.803 72.5959 324.859 73.3221C326.451 74.0474 334.39 78.2578 338.031 88.7977L338.034 88.8068C340.965 97.2093 340.289 107.466 335.382 119.265ZM323.415 155.419H323.424C329.204 155.419 333.999 150.624 333.999 144.843V137.015C333.999 134.209 332.9 131.552 330.893 129.545C328.886 127.538 326.229 126.439 323.424 126.439H281.888C276.029 126.439 271.312 131.095 271.312 136.906V144.735C271.312 150.484 275.967 155.309 281.885 155.31C281.886 155.31 281.887 155.31 281.888 155.31L323.415 155.419ZM310.595 49.9688L312.465 43.77L306.415 46.0767C290.833 52.0179 279.983 60.7441 274.846 72.553C270.758 81.6331 270.778 91.1522 272.075 98.9756C273.375 106.816 275.994 113.19 277.368 116.167L278.221 118.015H280.257C280.691 118.015 281.101 117.974 281.351 117.949L281.389 117.945C281.688 117.915 281.801 117.906 281.888 117.906H323.312C323.312 117.907 323.357 117.909 323.573 117.936L323.608 117.941C323.806 117.966 324.198 118.015 324.62 118.015H326.748L327.561 116.048C332.303 104.564 331.979 96.32 329.698 90.5679C327.439 84.8735 323.477 82.167 321.958 81.299L321.746 81.1779L321.518 81.0906C315.776 78.8894 311.842 74.9709 310.008 69.7429L310.004 69.7316L310 69.7203C307.833 63.6903 308.615 56.5345 310.595 49.9688ZM325.021 333.352L325.033 333.34L325.045 333.328C330.716 327.537 333.891 320.004 333.891 311.965V311.882L333.886 311.798L326.275 166.749L326.117 163.734H323.097H282.105H279.085L278.928 166.75L271.316 312.125L271.312 312.208V312.291C271.312 320.025 274.502 327.552 280.158 333.328L280.181 333.352L280.205 333.376C286.021 339.07 293.562 342.113 301.568 342.113H303.743C311.744 342.113 319.3 339.073 325.021 333.352Z" fill="#407BFF" stroke="#407BFF" stroke-width="6.36414"/>
<path d="M503.464 124.053V124.805L503.681 125.24V302.81V324.121C503.681 337.913 492.602 348.992 478.81 348.992H451.627C437.928 348.992 426.756 337.896 426.756 324.23V302.592V125.488C426.773 125.449 426.791 125.403 426.811 125.355C426.843 125.275 426.881 125.175 426.919 125.06L427.083 124.57V124.072C427.084 124.061 427.087 124.034 427.096 123.987C427.116 123.879 427.147 123.754 427.205 123.52L427.3 123.14V123.033L462.084 35.7484C462.084 35.7481 462.084 35.7477 462.085 35.7474C462.71 34.185 464.293 33.0732 465.98 33.0732C467.646 33.0732 469.221 34.1601 469.859 35.8143C469.859 35.8154 469.86 35.8165 469.86 35.8176L503.246 123.119V123.5L503.464 123.934C503.464 123.941 503.464 123.947 503.464 123.953C503.464 123.982 503.464 124.015 503.464 124.053ZM454.346 83.3587H452.187L451.389 85.3648L436.384 123.095L435.713 124.781L436.822 126.217C437.853 127.55 439.218 129.06 440.838 130.279C442.414 131.465 444.47 132.554 446.851 132.666C449.593 132.898 452.285 131.727 454.646 130.041C457.084 128.299 459.533 125.754 461.884 122.603C462.602 121.675 463.845 121.092 465.273 121.092C466.701 121.092 467.945 121.675 468.662 122.603C470.996 125.732 473.414 128.307 475.841 130.068C478.204 131.782 480.944 132.984 483.796 132.658C486.162 132.465 488.192 131.313 489.724 130.144C491.306 128.938 492.646 127.49 493.63 126.332L494.852 124.894L494.177 123.132L479.716 85.4019L478.933 83.3587H476.744H454.346ZM461.007 141.668V136.519L456.402 138.822C452.824 140.611 449.496 141.481 446.115 141.214C443.921 141.038 441.912 140.333 439.724 139.396L435.289 137.495V142.32V296.503V299.685H438.471H457.825H461.007V296.503V141.668ZM474.143 138.878L469.431 136.294V141.668V296.394V299.576H472.613H492.076H495.258V296.394V142.212V137.172L490.708 139.339C488.65 140.319 486.687 141.014 484.445 141.204H484.443H484.439H484.436H484.433H484.43H484.427H484.423H484.42H484.417H484.414H484.411H484.408H484.404H484.401H484.398H484.395H484.392H484.388H484.385H484.382H484.379H484.376H484.372H484.369H484.366H484.363H484.36H484.357H484.353H484.35H484.347H484.344H484.341H484.337H484.334H484.331H484.328H484.325H484.322H484.318H484.315H484.312H484.309H484.306H484.302H484.299H484.296H484.293H484.29H484.286H484.283H484.28H484.277H484.274H484.271H484.267H484.264H484.261H484.258H484.255H484.251H484.248H484.245H484.242H484.239H484.235H484.232H484.229H484.226H484.223H484.22H484.216H484.213H484.21H484.207H484.204H484.2H484.197H484.194H484.191H484.188H484.185H484.181H484.178H484.175H484.172H484.169H484.165H484.162H484.159H484.156H484.153H484.149H484.146H484.143H484.14H484.137H484.134H484.13H484.127H484.124H484.121H484.118H484.114H484.111H484.108H484.105H484.102H484.099H484.095H484.092H484.089H484.086H484.083H484.079H484.076H484.073H484.07H484.067H484.063H484.06H484.057H484.054H484.051H484.048H484.044H484.041H484.038H484.035H484.032H484.028H484.025H484.022H484.019H484.016H484.013H484.009H484.006H484.003H484H483.997H483.993H483.99H483.987H483.984H483.981H483.977H483.974H483.971H483.968H483.965H483.962H483.958H483.955H483.952H483.949H483.946H483.942H483.939H483.936H483.933H483.93H483.926H483.923H483.92H483.917H483.914H483.911H483.907H483.904H483.901H483.898H483.895H483.891H483.888H483.885H483.882H483.879H483.876H483.872H483.869H483.866H483.863H483.86H483.856H483.853H483.85H483.847H483.844H483.84H483.837H483.834H483.831H483.828H483.825H483.821H483.818H483.815H483.812H483.809H483.805H483.802H483.799H483.796H483.793H483.79H483.786H483.783H483.78H483.777H483.774H483.77H483.767H483.764H483.761H483.758H483.754H483.751H483.748H483.745H483.742H483.739H483.735H483.732H483.729H483.726H483.723H483.719H483.716H483.713H483.71H483.707H483.703H483.7H483.697H483.694H483.691H483.688H483.684H483.681H483.678H483.675H483.672H483.668H483.665H483.662H483.659H483.656H483.653H483.649H483.646H483.643H483.64H483.637H483.633H483.63H483.627H483.624H483.621H483.617H483.614H483.611H483.608H483.605H483.602H483.598H483.595H483.592H483.589H483.586H483.582H483.579H483.576H483.573H483.57H483.567H483.563H483.56H483.557H483.554H483.551H483.547H483.544H483.541H483.538H483.535H483.531H483.528H483.525H483.522H483.519H483.516H483.512H483.509H483.506H483.503H483.5H483.496H483.493H483.49H483.487H483.484H483.481H483.477H483.474H483.471H483.468H483.465H483.461H483.458H483.455H483.452H483.449H483.445H483.442H483.439H483.436H483.433H483.43H483.426H483.423H483.42H483.417H483.414H483.41H483.407H483.404H483.401H483.398H483.394H483.391H483.388H483.385H483.382H483.379H483.375H483.372H483.369H483.366H483.363H483.359H483.356H483.353H483.35H483.347H483.344H483.34H483.337H483.334H483.331H483.328H483.324H483.321H483.318H483.315H483.312H483.308H483.305H483.302H483.299H483.296H483.293H483.289H483.286H483.283H483.28H483.277H483.273H483.27H483.267H483.264H483.261H483.258H483.254H483.251H483.248H483.245H483.242H483.238H483.235H483.232H483.229H483.226H483.222H483.219H483.216H483.213H483.21H483.207H483.203H483.2H483.197H483.194H483.191H483.187H483.184H483.181H483.178H483.175H483.171H483.168H483.165H483.162H483.159H483.156H483.152H483.149H483.146H483.143H483.14H483.136H483.133H483.13H483.127H483.124H483.121H483.117H483.114H483.111H483.108H483.105H483.101H483.098H483.095H483.092H483.089H483.085H483.082H483.079H483.076H483.073H483.07H483.066H483.063H483.06H483.057H483.054H483.05H483.047H483.044H483.041H483.038H483.035H483.031H483.028H483.025H483.022H483.019H483.015H483.012H483.009H483.006H483.003H482.999H482.996H482.993H482.99H482.987H482.984H482.98H482.977H482.974H482.971H482.968H482.964H482.961H482.958H482.955H482.952H482.949H482.945H482.942C480.012 141.204 477.058 140.477 474.143 138.878ZM471.09 74.8264H475.716L474.062 70.5067L468.734 56.589L465.822 48.9809L462.806 56.5488L457.261 70.4666L455.524 74.8264H460.217H471.09ZM438.362 308.109H435.18V311.291V324.121C435.18 333.164 442.585 340.569 451.627 340.569H478.81C487.944 340.569 495.271 333.284 495.149 324.099V311.291V308.109H491.967H438.362Z" fill="#407BFF" stroke="#407BFF" stroke-width="6.36414"/>
<mask id="path-3-inside-1_382_2237" fill="white">
<path d="M772.967 304.56V206.483C772.967 194.305 763.072 184.302 750.785 184.302H730.778C726.647 184.302 723.385 181.04 723.385 176.908V89.5955C723.385 77.4175 713.49 67.4141 701.203 67.4141H661.625V38.2738C661.625 17.2885 644.554 0 623.459 0H143.079C121.985 0 104.914 17.1797 104.914 38.2738V67.4141H83.4941C71.2073 67.4141 61.204 77.4175 61.204 89.5955V241.386C61.204 245.518 57.8333 248.78 53.8102 248.78H22.8214C10.5346 248.78 0.53125 258.783 0.53125 270.961V407.094C0.53125 419.272 10.5346 429.276 22.8214 429.276H32.3899V436.126C32.3899 440.149 35.6518 443.411 39.7837 443.411H67.6192V445.803C67.6192 469.181 86.6474 488.318 110.025 488.318H656.405C679.783 488.318 698.811 469.181 698.811 445.803V391.437C698.811 387.414 695.549 384.152 691.417 384.152H661.625V82.3105H701.203C705.335 82.3105 708.597 85.5724 708.597 89.5955V176.908C708.597 189.195 718.492 199.198 730.778 199.198H750.785C754.917 199.198 758.179 202.46 758.179 206.483V305.212C721.971 308.909 700.116 329.786 700.116 361.535V418.294C700.116 456.894 731.648 488.535 770.357 488.535C809.066 488.535 840.598 457.003 840.598 418.294V361.535C840.489 327.067 814.72 305.429 772.967 304.56ZM22.8214 414.597C18.6896 414.597 15.4276 411.226 15.4276 407.203V271.07C15.4276 267.047 18.7983 263.676 22.8214 263.676H53.8102C66.0969 263.676 76.1003 253.782 76.1003 241.495V89.5955C76.1003 85.5724 79.3623 82.3105 83.4941 82.3105H104.914V384.043H75.013C70.8812 384.043 67.6192 387.305 67.6192 391.328V400.353H39.7837C35.6518 400.353 32.3899 403.615 32.3899 407.747V414.597H22.8214ZM47.2862 428.841V415.141H67.6192V428.841H47.2862ZM684.023 446.021C684.023 461.243 671.628 473.639 656.405 473.639H110.025C94.8023 473.639 82.4068 461.243 82.4068 446.021V436.235V407.855V398.831H304.112C308.027 414.923 322.597 426.884 339.776 426.884H426.762C443.942 426.884 458.512 415.032 462.427 398.831H684.132L684.023 446.021ZM456.012 384.043C452.097 384.043 448.835 387.088 448.618 391.002C448.074 402.854 438.506 412.096 426.762 412.096H339.776C328.033 412.096 318.465 402.854 317.813 391.111C317.704 387.088 314.333 384.043 310.419 384.043H119.702V38.2738C119.702 25.4434 130.14 14.8964 143.079 14.8964H623.459C636.399 14.8964 646.837 25.4434 646.837 38.2738V384.043H456.012ZM825.702 361.535V372.083H789.711V366.972C789.711 358.817 784.818 351.858 777.751 348.922V319.456C796.344 320.87 825.702 328.263 825.702 361.535ZM765.681 366.972C765.681 364.362 767.747 362.297 770.248 362.297C772.749 362.297 774.815 364.362 774.815 366.972V383.826C774.815 386.326 772.749 388.392 770.248 388.392C767.747 388.392 765.681 386.326 765.681 383.826V366.972ZM762.854 319.456V348.922C755.787 351.858 750.894 358.817 750.894 366.972V372.083H715.012V361.535C715.012 328.263 744.37 320.87 762.854 319.456ZM770.357 473.639C739.803 473.639 715.012 448.739 715.012 418.294V386.979H751.22C752.742 396.221 760.68 403.289 770.357 403.289C779.925 403.289 787.972 396.221 789.494 386.979H825.702V418.403C825.702 448.848 800.911 473.639 770.357 473.639Z"/>
</mask>
<path d="M772.967 304.56V206.483C772.967 194.305 763.072 184.302 750.785 184.302H730.778C726.647 184.302 723.385 181.04 723.385 176.908V89.5955C723.385 77.4175 713.49 67.4141 701.203 67.4141H661.625V38.2738C661.625 17.2885 644.554 0 623.459 0H143.079C121.985 0 104.914 17.1797 104.914 38.2738V67.4141H83.4941C71.2073 67.4141 61.204 77.4175 61.204 89.5955V241.386C61.204 245.518 57.8333 248.78 53.8102 248.78H22.8214C10.5346 248.78 0.53125 258.783 0.53125 270.961V407.094C0.53125 419.272 10.5346 429.276 22.8214 429.276H32.3899V436.126C32.3899 440.149 35.6518 443.411 39.7837 443.411H67.6192V445.803C67.6192 469.181 86.6474 488.318 110.025 488.318H656.405C679.783 488.318 698.811 469.181 698.811 445.803V391.437C698.811 387.414 695.549 384.152 691.417 384.152H661.625V82.3105H701.203C705.335 82.3105 708.597 85.5724 708.597 89.5955V176.908C708.597 189.195 718.492 199.198 730.778 199.198H750.785C754.917 199.198 758.179 202.46 758.179 206.483V305.212C721.971 308.909 700.116 329.786 700.116 361.535V418.294C700.116 456.894 731.648 488.535 770.357 488.535C809.066 488.535 840.598 457.003 840.598 418.294V361.535C840.489 327.067 814.72 305.429 772.967 304.56ZM22.8214 414.597C18.6896 414.597 15.4276 411.226 15.4276 407.203V271.07C15.4276 267.047 18.7983 263.676 22.8214 263.676H53.8102C66.0969 263.676 76.1003 253.782 76.1003 241.495V89.5955C76.1003 85.5724 79.3623 82.3105 83.4941 82.3105H104.914V384.043H75.013C70.8812 384.043 67.6192 387.305 67.6192 391.328V400.353H39.7837C35.6518 400.353 32.3899 403.615 32.3899 407.747V414.597H22.8214ZM47.2862 428.841V415.141H67.6192V428.841H47.2862ZM684.023 446.021C684.023 461.243 671.628 473.639 656.405 473.639H110.025C94.8023 473.639 82.4068 461.243 82.4068 446.021V436.235V407.855V398.831H304.112C308.027 414.923 322.597 426.884 339.776 426.884H426.762C443.942 426.884 458.512 415.032 462.427 398.831H684.132L684.023 446.021ZM456.012 384.043C452.097 384.043 448.835 387.088 448.618 391.002C448.074 402.854 438.506 412.096 426.762 412.096H339.776C328.033 412.096 318.465 402.854 317.813 391.111C317.704 387.088 314.333 384.043 310.419 384.043H119.702V38.2738C119.702 25.4434 130.14 14.8964 143.079 14.8964H623.459C636.399 14.8964 646.837 25.4434 646.837 38.2738V384.043H456.012ZM825.702 361.535V372.083H789.711V366.972C789.711 358.817 784.818 351.858 777.751 348.922V319.456C796.344 320.87 825.702 328.263 825.702 361.535ZM765.681 366.972C765.681 364.362 767.747 362.297 770.248 362.297C772.749 362.297 774.815 364.362 774.815 366.972V383.826C774.815 386.326 772.749 388.392 770.248 388.392C767.747 388.392 765.681 386.326 765.681 383.826V366.972ZM762.854 319.456V348.922C755.787 351.858 750.894 358.817 750.894 366.972V372.083H715.012V361.535C715.012 328.263 744.37 320.87 762.854 319.456ZM770.357 473.639C739.803 473.639 715.012 448.739 715.012 418.294V386.979H751.22C752.742 396.221 760.68 403.289 770.357 403.289C779.925 403.289 787.972 396.221 789.494 386.979H825.702V418.403C825.702 448.848 800.911 473.639 770.357 473.639Z" fill="#407BFF" stroke="#407BFF" stroke-width="12.7283" mask="url(#path-3-inside-1_382_2237)"/>
<path d="M163.094 421.797L163.093 421.841V421.886C163.093 424.26 161.255 426.097 158.881 426.097H142.136C139.84 426.097 137.924 424.23 137.924 421.886C137.924 419.651 139.731 417.783 142.136 417.783H158.99C161.306 417.783 163.15 419.758 163.094 421.797Z" fill="#407BFF" stroke="#407BFF" stroke-width="6.36414"/>
<path d="M184.198 417.783H201.052C203.426 417.783 205.264 419.729 205.264 421.886C205.264 424.26 203.426 426.097 201.052 426.097H184.198C181.824 426.097 179.987 424.26 179.987 421.886C179.987 419.651 181.793 417.783 184.198 417.783Z" fill="#407BFF" stroke="#407BFF" stroke-width="6.36414"/>
</svg>
