<svg width="660" height="649" viewBox="0 0 660 649" fill="none" xmlns="http://www.w3.org/2000/svg">
<g clip-path="url(#clip0_382_546)">
<path d="M331.838 94.8186C331.838 79.1975 308.607 79.1975 308.607 94.8186C308.206 110.039 331.838 110.039 331.838 94.8186ZM323.827 94.8186C323.827 100.026 315.816 100.026 315.816 94.8186C315.816 89.211 323.827 89.211 323.827 94.8186Z" stroke="#407BFF" stroke-width="8.03354"/>
<path d="M362.313 94.8186C362.313 79.1975 339.082 79.1975 339.082 94.8186C339.082 110.039 362.313 110.039 362.313 94.8186ZM354.703 94.8186C354.703 100.026 346.692 100.026 346.692 94.8186C346.692 89.211 354.703 89.211 354.703 94.8186Z" stroke="#407BFF" stroke-width="8.03354"/>
<path d="M381.56 106.436C397.181 106.436 397.181 83.2047 381.56 83.2047C365.938 82.8042 365.938 106.436 381.56 106.436ZM385.565 94.8204C385.565 100.027 377.554 100.027 377.554 94.8204C377.554 89.2129 385.565 89.2129 385.565 94.8204Z" stroke="#407BFF" stroke-width="8.03354"/>
<path d="M413.595 106.436H594.239C600.648 106.436 605.855 101.229 605.855 94.8204C605.855 88.4118 600.648 83.2047 594.239 83.2047H413.595C398.375 82.8042 398.375 106.436 413.595 106.436ZM594.239 90.4145C596.642 90.4145 598.245 92.4172 598.245 94.4199C598.245 96.8231 596.242 98.4253 594.239 98.4253C402.78 98.4253 409.59 100.027 409.59 94.4199C409.59 88.8123 402.38 90.4145 594.239 90.4145Z" stroke="#407BFF" stroke-width="8.03354"/>
<path d="M655.523 331.139C655.523 292.687 648.714 255.036 634.695 219.789V118.051V94.82C634.695 80 622.679 67.5832 607.458 67.5832H507.723C459.658 37.5426 403.583 21.521 345.905 21.521C226.543 21.521 116.795 91.2151 65.9264 199.361L49.1037 216.184C47.9021 217.386 47.5015 219.388 48.7031 220.99L53.9102 229.402C44.6977 254.636 39.4907 281.072 37.488 307.908L9.85066 315.118C8.2485 315.518 7.04688 317.12 7.04688 318.723V371.193C7.04688 372.796 8.2485 374.398 9.85066 374.798L41.0929 382.809C45.0983 405.64 51.5069 428.07 60.3188 449.7L48.7031 469.326C47.9021 470.928 47.9021 472.931 49.1037 474.133L85.9535 510.982C87.1551 512.184 89.1578 512.584 90.76 511.383L93.1632 509.781C152.043 592.693 246.57 640.357 345.504 640.357C516.535 640.758 655.523 501.77 655.523 331.139ZM647.913 331.139C647.913 415.253 613.466 491.356 557.791 545.829H246.17L256.183 507.778C272.205 503.773 287.426 497.364 301.445 488.953L339.897 511.383C341.499 512.184 343.101 512.184 344.703 510.982L381.553 474.133C382.754 472.931 383.155 470.928 381.953 469.326L359.123 430.474C364.33 421.261 368.736 411.648 372.34 401.635H607.859C622.679 401.635 635.095 389.618 635.095 374.398V243.421C643.507 271.459 647.913 301.099 647.913 331.139ZM345.905 633.147C273.006 633.147 199.307 606.311 142.029 553.84H188.893H241.363H549.78C492.903 605.911 419.604 633.147 345.905 633.147ZM128.01 356.774C130.013 352.769 136.422 349.564 138.825 343.156C143.231 331.54 131.215 329.137 152.844 303.502C175.274 277.066 176.476 274.663 180.481 273.461C182.884 272.66 185.688 273.061 186.089 274.663C188.893 280.271 170.067 292.687 186.89 303.502C198.906 311.513 181.282 321.927 185.288 335.545C187.691 343.556 195.702 346.36 201.309 349.965C210.522 355.572 217.732 364.785 220.535 375.199C220.535 375.599 220.936 376.801 220.936 377.602C220.936 378.003 219.734 378.804 219.334 379.204C210.922 385.212 203.312 386.414 194.1 386.414C168.865 386.414 167.664 399.231 154.446 401.234C148.838 402.035 141.629 399.632 134.419 402.035C131.615 402.836 128.811 404.438 126.408 406.842C121.602 399.632 117.596 392.022 114.392 384.011C120.801 383.21 127.61 382.809 127.61 372.796C127.61 366.787 126.008 361.18 128.01 356.774ZM171.269 401.234C185.688 391.621 186.489 395.226 201.309 394.024C212.925 392.823 226.143 386.414 228.146 380.406C228.947 378.003 228.546 376 228.146 373.997C224.941 361.18 216.93 349.965 202.511 341.954C191.296 335.946 190.495 333.142 195.702 321.927L196.102 320.725C202.11 308.308 198.506 301.9 191.296 297.093C186.89 294.29 186.089 293.488 190.495 286.279C200.508 268.254 186.089 263.047 177.677 266.252C171.669 268.655 169.266 272.26 154.446 290.284C143.231 303.502 131.615 315.518 132.016 330.338C132.016 333.543 132.817 338.349 132.016 340.752C131.215 342.755 129.612 344.357 127.61 346.36C125.607 348.363 123.204 350.365 122.002 353.169C118.798 359.578 120.4 366.788 120.4 372.395C120.4 375.599 119.999 375.599 117.196 376C115.594 376.4 113.991 376.4 112.389 376.4C91.1605 305.905 144.032 236.612 216.129 236.612C238.56 236.612 260.589 243.421 280.216 257.84C280.216 383.21 280.216 374.798 280.616 377.602C277.012 387.215 273.807 386.414 263.794 388.417C256.183 390.019 250.976 393.624 249.374 398.831C247.772 404.839 252.979 412.449 238.96 419.659C231.35 423.664 218.933 426.468 215.328 433.277C213.726 436.081 214.527 439.686 214.527 441.288C215.328 446.495 214.928 450.501 214.127 453.304C191.696 452.904 171.269 446.095 154.446 434.078C145.634 428.07 138.024 420.861 131.615 412.85C142.43 402.035 147.637 417.256 171.269 401.234ZM223.74 434.879C233.353 428.871 256.985 425.667 255.783 404.839C254.982 391.221 273.807 400.032 283.02 388.016C287.826 396.027 296.238 401.635 307.853 401.635C289.028 431.675 256.985 450.901 221.336 453.304C223.74 441.288 218.533 438.084 223.74 434.879ZM306.652 394.024C295.837 394.024 287.025 385.212 287.025 374.398V199.361C287.025 199.361 287.025 199.361 287.025 198.961V121.656H627.084V374.398C627.084 385.212 618.273 394.024 607.458 394.024H306.652ZM627.084 94.4195V114.046H287.025V94.4195C287.025 83.6049 295.837 74.793 306.652 74.793H607.859C618.273 75.1935 627.084 84.0054 627.084 94.4195ZM345.905 29.1313C397.574 29.1313 448.043 42.3491 492.903 67.1827H306.652C291.832 67.1827 279.415 79.1989 279.415 94.4195V117.651V192.953C272.205 189.748 264.595 187.345 257.385 185.342L245.369 138.88C244.968 137.277 243.366 136.076 241.764 136.076H188.893C187.29 136.076 185.688 137.277 185.288 138.88L173.271 185.342C158.852 188.947 145.234 194.555 132.416 202.165L91.1605 177.732C89.5583 176.931 87.5556 176.931 86.354 178.133L83.9508 180.536C137.223 88.4114 237.358 29.1313 345.905 29.1313ZM58.7167 237.813L72.3351 261.045C64.3243 274.262 58.3161 288.281 54.3107 303.101L44.6977 305.505C47.101 282.674 51.5069 259.843 58.7167 237.813ZM49.1037 385.212L53.9102 386.414C57.5151 402.035 63.5232 416.855 71.534 430.474L65.1253 441.689C57.9156 423.264 52.308 404.438 49.1037 385.212ZM56.714 470.528L79.1443 432.076C79.9454 430.874 79.9454 429.272 79.1443 428.07C70.7329 413.651 64.3243 398.43 60.7194 382.008C60.3188 380.806 59.5178 379.605 57.9156 379.204L14.2566 368.39V321.927L58.7167 310.311C59.9183 309.911 61.1199 309.11 61.5205 307.507C65.5259 291.886 71.9345 277.066 80.3459 263.448C81.147 262.246 81.147 260.644 80.3459 259.442L56.714 219.388L89.5583 186.544L130.414 210.576C131.615 211.378 133.217 211.378 134.419 210.576C147.637 202.566 162.457 196.557 177.677 192.953C178.879 192.552 180.081 191.751 180.481 190.149L192.497 144.087H238.96L250.976 190.149C251.377 191.35 252.579 192.552 253.78 192.953C262.592 194.955 271.404 198.16 279.815 201.765V248.628C260.189 235.41 238.159 229.001 215.729 229.001C102.376 229.001 56.714 376.4 150.04 440.487C206.116 478.939 283.42 461.315 317.066 401.635H364.73C361.526 410.847 357.12 420.059 351.913 428.471C351.112 429.672 351.112 431.275 351.913 432.476L374.343 470.928L341.499 503.773L303.848 481.743C302.646 480.942 301.044 480.942 299.842 481.743C285.423 490.955 269.401 497.364 252.979 501.369C251.778 501.77 250.576 502.571 250.175 504.173L239.361 546.23H192.097L181.282 504.173C180.882 502.971 179.68 501.77 178.478 501.369C161.656 497.364 146.035 490.955 131.615 481.743C130.414 480.942 128.811 480.942 127.61 481.743L89.9589 503.773L56.714 470.528ZM99.9724 506.176L129.212 488.953C143.231 497.364 158.451 503.773 174.473 507.778L184.487 545.829H134.018C121.602 533.813 110.386 520.595 99.9724 506.176Z" stroke="#407BFF" stroke-width="8.03354"/>
<path d="M236.934 576.669C236.934 578.672 238.536 580.675 240.939 580.675H333.464C335.467 580.675 337.469 579.073 337.469 576.669C337.469 574.667 335.867 572.664 333.464 572.664H240.538C238.536 573.065 236.934 574.667 236.934 576.669Z" stroke="#407BFF" stroke-width="8.03354"/>
<path d="M348.31 580.675H363.531C365.533 580.675 367.536 579.073 367.536 576.669C367.536 574.667 365.934 572.664 363.531 572.664H348.31C346.307 572.664 344.305 574.266 344.305 576.669C344.305 578.672 345.907 580.675 348.31 580.675Z" stroke="#407BFF" stroke-width="8.03354"/>
<path d="M376.322 580.675H386.335C388.338 580.675 390.341 579.073 390.341 576.669C390.341 574.667 388.739 572.664 386.335 572.664H376.322C374.319 572.664 372.316 574.266 372.316 576.669C372.717 578.672 374.319 580.675 376.322 580.675Z" stroke="#407BFF" stroke-width="8.03354"/>
<path d="M354.73 595.496C354.73 597.498 356.333 599.501 358.736 599.501C456.868 599.501 455.266 601.103 455.266 595.496C455.266 593.493 453.664 591.49 451.261 591.49H358.736C356.733 591.49 354.73 593.493 354.73 595.496Z" stroke="#407BFF" stroke-width="8.03354"/>
<path d="M324.668 595.498C324.668 597.501 326.27 599.503 328.673 599.503H343.894C345.897 599.503 347.899 597.901 347.899 595.498C347.899 593.495 346.297 591.493 343.894 591.493H328.673C326.27 591.493 324.668 593.495 324.668 595.498Z" stroke="#407BFF" stroke-width="8.03354"/>
<path d="M315.456 591.49H305.443C303.44 591.49 301.438 593.092 301.438 595.496C301.438 597.498 303.04 599.501 305.443 599.501H315.456C317.459 599.501 319.462 597.899 319.462 595.496C319.462 593.493 317.459 591.49 315.456 591.49Z" stroke="#407BFF" stroke-width="8.03354"/>
<path d="M505.734 208.173C504.132 206.971 501.728 207.371 500.527 208.974C499.325 210.576 499.726 212.979 501.328 214.181L557.003 256.237L501.328 298.294C499.726 299.496 499.325 301.899 500.527 303.501C501.328 304.302 502.529 305.104 503.731 305.104C504.532 305.104 505.333 304.703 506.134 304.302L565.414 259.442C566.216 258.641 567.017 257.439 567.017 256.237C567.017 255.036 566.616 253.834 565.414 253.033L505.734 208.173Z" stroke="#407BFF" stroke-width="8.03354"/>
<path d="M413.976 208.974C412.775 207.371 410.371 206.971 408.769 208.173L348.688 253.434C347.887 254.235 347.086 255.436 347.086 256.638C347.086 257.84 347.486 259.041 348.688 259.842L408.369 305.104C409.17 305.504 409.971 305.905 410.772 305.905C411.974 305.905 413.175 305.504 413.976 304.302C415.178 302.7 414.777 300.297 413.175 299.095L357.5 256.638L413.175 214.581C414.777 213.38 415.178 210.976 413.976 208.974Z" stroke="#407BFF" stroke-width="8.03354"/>
<path d="M494.121 167.718C492.118 166.917 490.115 167.718 489.314 169.72L418.018 339.95C417.217 341.953 418.018 343.956 420.021 344.757C420.421 345.157 420.822 345.157 421.623 345.157C423.225 345.157 424.427 344.356 425.228 342.754L496.123 172.925C496.925 170.922 496.123 168.519 494.121 167.718Z" stroke="#407BFF" stroke-width="8.03354"/>
</g>
<defs>
<clipPath id="clip0_382_546">
<rect width="658.751" height="648.039" fill="white" transform="translate(0.613281 0.689941)"/>
</clipPath>
</defs>
</svg>
