<svg width="851" height="1063" viewBox="0 0 851 1063" fill="none" xmlns="http://www.w3.org/2000/svg">
<g clip-path="url(#clip0_382_591)">
<path d="M552.803 761.804C554.48 761.804 555.837 760.447 555.837 758.769C555.837 757.092 554.48 755.735 552.803 755.735H504.628C502.951 755.735 501.594 757.092 501.594 758.769C501.594 760.447 502.951 761.804 504.628 761.804H552.803Z" stroke="#407BFF" stroke-width="9.44386"/>
<path d="M580.082 758.769C580.082 760.447 581.439 761.804 583.117 761.804H592.979C594.656 761.804 596.014 760.447 596.014 758.769C596.014 757.092 594.656 755.735 592.979 755.735H583.117C581.439 755.735 580.082 757.092 580.082 758.769Z" stroke="#407BFF" stroke-width="9.44386"/>
<path d="M196.035 111.949H258.072C259.75 111.949 261.107 110.592 261.107 108.915C261.107 107.237 259.75 105.88 258.072 105.88H196.035C194.357 105.88 193 107.237 193 108.915C193 110.592 194.357 111.949 196.035 111.949Z" stroke="#407BFF" stroke-width="9.44386"/>
<path d="M271.488 111.949H276.712C278.39 111.949 279.747 110.592 279.747 108.915C279.747 107.237 278.39 105.88 276.712 105.88H271.488C269.81 105.88 268.453 107.237 268.453 108.915C268.453 110.592 269.81 111.949 271.488 111.949Z" stroke="#407BFF" stroke-width="9.44386"/>
<path d="M104.246 498.403H349.806C351.483 498.403 352.84 497.046 352.84 495.369C352.84 439.318 316.139 390.639 262.959 374.861C268.397 371.141 273.197 366.578 277.253 361.4C277.263 361.391 277.276 361.389 277.286 361.381C294.676 346.8 304.894 325.425 305.318 302.727L306.231 253.809C306.747 225.744 288.104 201.704 261.793 194.729C261.802 193.97 261.802 193.349 261.802 193.061C261.802 173.851 246.202 158.225 227.026 158.225C207.759 158.225 191.352 174.2 192.312 194.701C165.931 201.648 147.244 225.712 147.761 253.812L148.733 302.715C149.039 323.362 157.336 342.717 172.08 357.196C173.53 358.647 175.044 359.97 176.62 361.233C180.702 366.48 185.542 371.101 191.037 374.86C137.89 390.63 101.211 439.312 101.211 495.369C101.211 497.046 102.568 498.403 104.246 498.403ZM200.384 380.106C217.394 387.948 236.566 387.964 253.608 380.109V385.515C253.608 400.208 241.683 412.16 227.026 412.16C219.931 412.16 213.234 409.371 208.172 404.31C203.223 399.361 200.384 392.509 200.384 385.515V380.106ZM227.026 164.294C242.854 164.294 255.733 177.2 255.733 193.061C255.733 193.147 255.733 193.308 255.733 193.451C255.012 193.338 254.309 193.176 253.578 193.087C250.968 192.744 248.535 192.578 246.143 192.578H207.849C205.49 192.578 202.989 192.749 200.443 193.081C199.751 193.165 199.085 193.32 198.401 193.427C198.181 176.647 211.663 164.294 227.026 164.294ZM154.803 302.612L153.831 253.696C153.318 225.905 173.671 202.437 201.202 199.103C203.516 198.801 205.754 198.647 207.849 198.647H246.143C248.268 198.647 250.443 198.795 252.82 199.109C280.321 202.437 300.674 225.905 300.161 253.696L299.249 302.615C299.003 315.75 295.196 328.403 288.437 339.333C289.973 333.852 290.856 328.1 290.856 322.135V273.338C290.856 272.26 290.284 271.264 289.354 270.719C272.651 260.939 267.791 240.239 267.744 240.032C267.48 238.864 266.553 237.963 265.382 237.726C264.197 237.516 263.005 237.966 262.312 238.938C262.004 239.371 230.831 282.098 165.833 289.522C164.301 289.697 163.142 290.992 163.142 292.536V322.135C163.142 328.063 164.016 333.779 165.534 339.229C158.778 328.301 154.997 315.763 154.803 302.612ZM169.211 322.135V295.224C223.135 288.221 253.558 258.616 263.568 247.049C266.253 254.387 272.42 267.109 284.787 275.036V322.135C284.787 353.999 258.862 379.923 226.999 379.923C195.136 379.923 169.211 353.999 169.211 322.135ZM194.315 380.216V385.515C194.315 394.106 197.803 402.523 203.881 408.601C210.089 414.809 218.31 418.229 227.026 418.229C245.029 418.229 259.677 403.554 259.677 385.515V380.216C310.161 394.459 345.426 439.727 346.733 492.334H107.319C108.626 439.719 143.867 394.452 194.315 380.216Z" stroke="#407BFF" stroke-width="9.44386"/>
<path d="M352.858 525.728C352.858 524.051 351.501 522.694 349.823 522.694H104.246C102.568 522.694 101.211 524.051 101.211 525.728C101.211 527.406 102.568 528.763 104.246 528.763H349.823C351.501 528.763 352.858 527.406 352.858 525.728Z" stroke="#407BFF" stroke-width="9.44386"/>
<path d="M196.033 315.256C191.107 315.256 186.993 311.833 185.918 307.259C185.732 308.026 185.633 308.838 185.633 309.661C185.633 315.399 190.284 320.062 196.033 320.062C201.771 320.062 206.434 315.399 206.434 309.661C206.434 308.838 206.335 308.026 206.148 307.259C205.073 311.833 200.948 315.256 196.033 315.256Z" stroke="#407BFF" stroke-width="9.44386"/>
<path d="M258.021 320.062C263.759 320.062 268.422 315.399 268.422 309.661C268.422 308.838 268.323 308.026 268.137 307.259C267.062 311.833 262.936 315.256 258.021 315.256C253.095 315.256 248.981 311.833 247.906 307.259C247.72 308.026 247.621 308.838 247.621 309.661C247.621 315.399 252.273 320.062 258.021 320.062Z" stroke="#407BFF" stroke-width="9.44386"/>
<path d="M242.827 347.713C242.827 346.035 241.47 344.678 239.793 344.678C238.115 344.678 236.758 346.035 236.758 347.713C236.758 353.103 232.372 357.489 226.979 357.489C221.588 357.489 217.202 353.103 217.202 347.713C217.202 346.035 215.845 344.678 214.167 344.678C212.49 344.678 211.133 346.035 211.133 347.713C211.133 356.449 218.242 363.559 226.979 363.559C235.718 363.559 242.827 356.449 242.827 347.713Z" stroke="#407BFF" stroke-width="9.44386"/>
<path d="M547.885 245.973C552.05 241.799 552.036 235.011 547.857 230.829C543.676 226.654 536.897 226.667 532.729 230.829C528.547 235.014 528.535 241.809 532.708 245.982C536.886 250.159 543.691 250.16 547.876 245.983C547.878 245.981 547.883 245.975 547.885 245.973ZM547.885 245.973C547.884 245.974 547.886 245.972 547.885 245.973ZM554.101 247.905C558.594 241.374 557.96 232.35 552.148 226.538C545.611 220.001 534.975 220.001 528.437 226.538C521.888 233.087 521.879 243.735 528.417 250.273C534.054 255.91 543.012 256.886 549.811 252.197L557.077 259.462C558.262 260.648 560.182 260.648 561.368 259.462C562.553 258.277 562.553 256.357 561.368 255.171L554.101 247.905Z" stroke="#407BFF" stroke-width="9.44386"/>
<path d="M605.208 219.242C605.208 212.518 599.738 207.047 593.014 207.047C506.426 207.047 573.502 207.047 423.494 207.047V132.246C423.494 106.979 402.939 86.4246 377.672 86.4246H118.046L117.97 81.4608C117.887 76.1058 114.233 71.3553 109.071 69.9062L97.3089 66.6434C95.927 62.4978 94.3034 58.6416 92.2354 54.8724L97.8779 44.1713C100.465 39.4001 99.5641 33.6065 95.6286 29.748L86.3469 20.7094C82.5033 16.9428 76.5437 16.1723 71.8674 18.8424L61.1099 24.9264L49.4901 20.3508L45.848 8.56207C44.2477 3.4382 39.352 -0.0379644 34.0503 0.000561166L21.0614 0.181334C15.7064 0.261348 10.9559 3.91532 9.49788 9.09549L6.18767 20.8013C1.97952 22.2267 -1.86115 23.9099 -5.47067 25.9103L-16.2074 20.1908C-21.0023 17.6718 -26.9411 18.6498 -30.6632 22.529L-39.6337 31.8047C-43.4388 35.6928 -44.1916 41.5308 -41.4918 46.3613L-35.4582 56.8757C-37.5119 60.912 -39.0884 64.8149 -40.2442 68.7238L-51.9144 72.3659C-57.0768 74.0017 -60.4877 78.7433 -60.4048 84.1605L-60.224 97.0932C-60.141 102.445 -56.487 107.196 -51.3276 108.648L-39.5893 111.917C-38.2024 115.944 -36.4598 119.93 -34.4802 123.605L-40.1523 134.356C-42.6357 139.092 -41.7022 145.007 -37.8793 148.747L-28.577 157.803C-24.6948 161.525 -18.7382 162.293 -14.127 159.652L-3.49107 153.672C0.154018 155.539 4.1162 157.119 8.31842 158.381L11.9576 169.995C13.5638 175.137 18.2194 178.556 23.5685 178.556C23.6278 178.556 23.69 178.556 23.7522 178.556L30.5712 178.473V541.595H-9.02389C-19.9917 541.595 -28.9148 550.518 -28.9148 561.486V657.897C-28.9148 668.865 -19.9917 677.788 -9.02389 677.788H30.5712V715.984C30.5712 733.003 39.9421 747.853 53.7831 755.736H-38.2409C-39.9182 755.736 -41.2755 757.094 -41.2755 758.771C-41.2755 760.448 -39.9182 761.806 -38.2409 761.806H496.733C498.41 761.806 499.768 760.448 499.768 758.771C499.768 757.094 498.41 755.736 496.733 755.736H400.284C414.123 747.853 423.494 733.003 423.494 715.984V632.958L436.61 632.775C443.462 632.621 449.291 628.12 451.119 621.571L455.653 605.262C461.296 603.452 466.852 601.054 472.21 598.115L487.191 606.018C493.153 609.189 500.597 608.004 505.304 603.144L517.457 590.567C522.204 585.585 523.111 578.28 519.721 572.409L511.411 557.731C513.586 553.304 515.436 548.894 516.926 544.576C517.314 543.403 517.676 542.2 518.029 541.008L534.171 535.958C540.587 534 545.014 527.924 544.937 521.182L544.697 503.736C544.546 496.992 539.938 491.026 533.492 489.227L517.154 484.684C515.28 479.013 513.346 474.106 510.036 468.124L517.878 453.218C521.046 447.261 519.863 439.814 515.012 435.114L502.58 422.984C497.77 418.252 490.273 417.28 484.322 420.629L469.505 429.074L452.909 422.498L447.883 406.241C445.918 399.748 439.92 395.202 433.039 395.469L423.494 395.607V274.348C573.692 274.348 506.489 274.348 593.014 274.348C599.738 274.348 605.208 268.877 605.208 262.153V219.242ZM352.788 268.279C349.409 268.279 346.662 265.532 346.662 262.153V219.242C346.662 215.864 349.409 213.117 352.788 213.117H524.948V268.279C489.955 268.279 412.705 268.279 352.788 268.279ZM56.0631 677.788H87.3871C98.355 677.788 107.278 668.865 107.278 657.897V589.455H301.019C302.696 589.455 304.053 588.098 304.053 586.421C304.053 584.743 302.696 583.386 301.019 583.386H107.278V561.486C107.278 560.672 107.133 559.898 107.038 559.109H270.996C272.673 559.109 274.03 557.752 274.03 556.075C274.03 554.397 272.673 553.04 270.996 553.04H105.326C102.137 546.3 95.3244 541.595 87.3871 541.595H56.0631V132.246C56.0631 121.035 65.1847 111.917 76.3956 111.917H127.326C128.817 123.607 138.804 132.673 150.865 132.673H319.831C331.892 132.673 341.879 123.607 343.37 111.917H377.672C388.883 111.917 398.002 121.035 398.002 132.246V207.047H352.788C346.064 207.047 340.593 212.518 340.593 219.242V262.153C340.593 268.877 346.064 274.348 352.788 274.348H398.002V715.984C398.002 727.162 388.883 736.254 377.672 736.254H76.3956C65.1847 736.254 56.0631 727.162 56.0631 715.984V677.788ZM23.6693 172.487C20.7947 172.555 18.5661 170.795 17.7482 168.181L13.6231 155.012C13.3148 154.028 12.5295 153.269 11.5368 152.993C6.59367 151.624 2.01212 149.793 -2.07748 147.552C-2.9932 147.049 -4.10747 147.055 -5.02319 147.57L-17.1142 154.371C-19.4376 155.696 -22.4188 155.299 -24.3629 153.438L-33.6415 144.402C-35.5589 142.526 -36.0242 139.557 -34.7795 137.183L-28.3458 124.985C-27.8628 124.07 -27.8805 122.97 -28.3932 122.069C-30.767 117.894 -32.8207 113.203 -34.332 108.5C-34.6432 107.528 -35.4256 106.778 -36.4065 106.505L-49.6918 102.804C-52.2789 102.078 -54.1133 99.6892 -54.1548 97.0043L-54.3356 84.0716C-54.377 81.3512 -52.6671 78.9715 -50.0948 78.1565L-36.8629 74.0285C-35.8671 73.7172 -35.0996 72.9171 -34.8329 71.9095C-33.6445 67.4287 -31.8427 62.9568 -29.3238 58.236C-28.8318 57.3143 -28.8466 56.203 -29.3682 55.2962L-36.2109 43.3682C-37.5682 40.9381 -37.2007 37.9954 -35.2833 36.0365L-26.2921 26.7401C-24.4192 24.7901 -21.4261 24.3071 -19.0434 25.5576L-6.84277 32.0536C-5.91223 32.5544 -4.78018 32.5307 -3.87632 31.9884C0.195508 29.588 4.59628 27.6558 9.5779 26.0763C10.547 25.771 11.2997 24.9975 11.5782 24.0196L15.3478 10.7136C16.0768 8.12643 18.4624 6.28907 21.1473 6.25055L34.1392 6.06978C36.7264 6.05792 39.2513 7.79749 40.0544 10.3609L44.1232 23.5336C44.3929 24.4137 45.0508 25.125 45.9102 25.4628L60.2327 31.1053C61.0862 31.4372 62.0434 31.372 62.8376 30.9215L74.8605 24.1204C77.1957 22.7868 80.1829 23.1631 82.1062 25.0509L91.3849 34.0895C93.3615 36.0247 93.8268 38.9141 92.5258 41.3086L86.0921 53.5092C85.6031 54.4368 85.6268 55.554 86.1573 56.4579C87.8968 59.4332 89.4141 62.6605 90.6588 66.0418C91.1211 67.3131 91.5864 68.5874 91.9924 69.9743C92.2858 70.9849 93.08 71.7702 94.0935 72.0517L107.438 75.7531C110.025 76.4792 111.86 78.8648 111.901 81.5556L111.976 86.4246H76.3956C71.1917 86.4246 66.0282 87.3155 61.2262 89.0036C60.5083 71.5509 45.8176 57.5607 28.4049 57.9604C10.424 58.2306 -3.80715 73.0425 -3.47625 90.8313C-3.37845 99.4729 0.100676 107.554 6.32103 113.591C12.4059 119.495 20.4542 122.847 29.4421 122.718C30.2567 122.696 30.9891 122.608 31.7466 122.54C31.0513 125.691 30.5712 128.911 30.5712 132.246V172.402L23.6693 172.487ZM33.5636 116.181C24.9481 117.809 16.6303 115.143 10.5499 109.238C5.49718 104.336 2.67298 97.7748 2.59297 90.7395C2.32103 76.1415 14.0221 64.2486 28.4938 64.0296C42.8311 63.7629 54.9933 75.4272 55.2126 89.883C55.2126 90.5187 55.1548 91.1184 55.1226 91.7308C45.169 96.9598 37.4491 105.723 33.5636 116.181ZM36.6404 132.246C36.6404 110.474 54.3243 92.4939 76.3956 92.4939C77.1371 92.4939 115.833 92.4939 115.105 92.4939H377.672C399.593 92.4939 417.424 110.328 417.424 132.246V207.047H404.071V132.246C404.071 117.689 392.229 105.847 377.672 105.847H340.528C338.851 105.847 337.493 107.205 337.493 108.882C337.493 118.653 329.569 126.604 319.831 126.604H150.865C141.127 126.604 133.203 118.653 133.203 108.882C133.203 107.205 131.845 105.847 130.168 105.847H76.3956C61.8389 105.847 49.9939 117.689 49.9939 132.246V541.595H36.6404V132.246ZM-22.8456 657.897V561.486C-22.8456 553.864 -16.646 547.664 -9.02389 547.664C10.1938 547.664 89.5817 547.664 87.3871 547.664C95.0092 547.664 101.209 553.864 101.209 561.486V657.897C101.209 665.519 95.0092 671.719 87.3871 671.719H-9.02389C-16.646 671.719 -22.8456 665.519 -22.8456 657.897ZM423.494 479.543C424.372 479.477 425.251 479.353 426.116 479.344C445.903 479.344 462.188 495.27 462.52 515.075C462.798 535.132 446.71 551.721 426.623 552.056C425.663 552.084 424.547 551.923 423.494 551.842V479.543ZM433.152 401.538C437.253 401.428 440.898 404.104 442.081 408.019L447.542 425.681C447.812 426.558 448.467 427.267 449.323 427.605L468.624 435.253C469.475 435.588 470.441 435.52 471.244 435.07L487.315 425.909C490.904 423.879 495.429 424.46 498.333 427.32L510.783 439.464C513.708 442.3 514.422 446.784 512.514 450.379L503.896 466.764C503.41 467.686 503.431 468.794 503.952 469.695C506.397 473.927 508.445 478.298 510.045 482.696C510.697 484.48 511.293 486.267 511.888 488.107C512.2 489.076 512.979 489.823 513.963 490.099L531.865 495.074C535.756 496.159 538.536 499.777 538.628 503.846L538.868 521.26C538.915 525.32 536.254 528.976 532.378 530.162L514.718 535.686C514.25 535.831 513.764 536.151 513.418 536.498C513.059 536.853 512.798 537.295 512.653 537.778C512.127 539.563 511.651 541.206 511.177 542.629C509.624 547.128 507.636 551.777 505.268 556.448C504.812 557.355 504.835 558.431 505.336 559.314L514.452 575.42C516.494 578.962 515.936 583.365 513.08 586.361L500.944 598.924C498.105 601.846 493.621 602.566 490.033 600.654L473.585 591.977C472.67 591.494 471.567 591.512 470.663 592.028C464.751 595.403 458.575 598.067 452.302 599.946C451.303 600.245 450.529 601.037 450.248 602.041L445.272 619.944C444.17 623.897 440.634 626.614 436.497 626.706L423.494 626.889V557.944C424.828 558.032 425.029 558.179 426.759 558.125C450.15 557.734 468.912 538.383 468.589 514.983C468.201 491.859 449.205 473.275 426.158 473.275C425.279 473.27 424.383 473.414 423.494 473.473V401.678L433.152 401.538ZM417.424 715.984C417.424 737.869 399.593 755.677 377.672 755.677H76.3956C54.4747 755.677 36.6404 737.869 36.6404 715.984V677.788H49.9939V715.984C49.9939 730.508 61.8389 742.324 76.3956 742.324H377.672C392.229 742.324 404.071 730.508 404.071 715.984V274.348H417.424C417.424 426.631 417.424 549.725 417.424 715.984ZM599.139 262.153C599.139 265.532 596.392 268.279 593.014 268.279H531.018V213.117H593.014C596.392 213.117 599.139 215.864 599.139 219.242V262.153Z" stroke="#407BFF" stroke-width="9.44386"/>
<path d="M-7.66852 578.589H86.0398C87.7171 578.589 89.0744 577.232 89.0744 575.555C89.0744 573.877 87.7171 572.52 86.0398 572.52H-7.66852C-9.34585 572.52 -10.7031 573.877 -10.7031 575.555C-10.7031 577.232 -9.34585 578.589 -7.66852 578.589Z" stroke="#407BFF" stroke-width="9.44386"/>
<path d="M89.0744 598.313C89.0744 596.636 87.7171 595.278 86.0398 595.278H-7.66852C-9.34585 595.278 -10.7031 596.636 -10.7031 598.313C-10.7031 599.99 -9.34585 601.348 -7.66852 601.348H86.0398C87.7171 601.348 89.0744 599.99 89.0744 598.313Z" stroke="#407BFF" stroke-width="9.44386"/>
<path d="M66.5957 618.039H48.1362C46.4588 618.039 45.1016 619.396 45.1016 621.074C45.1016 622.751 46.4588 624.108 48.1362 624.108H66.5957C68.273 624.108 69.6303 622.751 69.6303 621.074C69.6303 619.396 68.273 618.039 66.5957 618.039Z" stroke="#407BFF" stroke-width="9.44386"/>
<path d="M32.9342 618.039H-7.66852C-9.34585 618.039 -10.7031 619.396 -10.7031 621.074C-10.7031 622.751 -9.34585 624.108 -7.66852 624.108H32.9342C34.6115 624.108 35.9688 622.751 35.9688 621.074C35.9688 619.396 34.6115 618.039 32.9342 618.039Z" stroke="#407BFF" stroke-width="9.44386"/>
<path d="M30.1515 640.797H-7.66852C-9.34585 640.797 -10.7031 642.154 -10.7031 643.831C-10.7031 645.509 -9.34585 646.866 -7.66852 646.866H30.1515C31.8288 646.866 33.1861 645.509 33.1861 643.831C33.1861 642.154 31.8288 640.797 30.1515 640.797Z" stroke="#407BFF" stroke-width="9.44386"/>
</g>
<defs>
<clipPath id="clip0_382_591">
<rect width="849.948" height="1062.43" fill="white" transform="translate(0.582031)"/>
</clipPath>
</defs>
</svg>
